<svg width="1217" height="211" viewBox="0 0 1217 211" fill="none" xmlns="http://www.w3.org/2000/svg">
<path d="M351.45 32.3674C397.348 27.5124 385.889 30.3239 403.409 26.8704C420.93 23.4169 498.619 6.06895 498.619 6.06895L560.123 0L617.233 14.1608C657.504 21.5783 741.119 36.0087 753.42 34.3903C768.796 32.3674 812.727 50.574 843.479 46.5281C874.231 42.4821 926.948 54.6199 973.076 56.6428C1019.2 58.6658 1019.2 60.6887 1091.69 54.6199C1149.68 49.7648 1199.32 68.7805 1216.89 78.8953V210.387H0V32.3674L54.914 30.3444H144.973C188.904 30.3444 305.551 37.2225 351.45 32.3674Z" fill="#DDCFBF"/>
</svg>
